<?xml version="1.0" encoding="UTF-8" standalone="no"?><!DOCTYPE svg PUBLIC "-//W3C//DTD SVG 1.1//EN" "http://www.w3.org/Graphics/SVG/1.1/DTD/svg11.dtd"><svg width="100%" height="100%" viewBox="0 0 16 16" version="1.1" xmlns="http://www.w3.org/2000/svg" xmlns:xlink="http://www.w3.org/1999/xlink" xml:space="preserve" xmlns:serif="http://www.serif.com/" style="fill-rule:evenodd;clip-rule:evenodd;stroke-linejoin:round;stroke-miterlimit:2;"><rect x="0" y="0" width="16" height="16" style="fill:#fff;fill-opacity:0;"/><path d="M2.532,9.453c-0.348,-0.758 -0.542,-1.6 -0.542,-2.488c-0,-3.295 2.675,-5.97 5.97,-5.97c3.295,0 5.97,2.675 5.97,5.97c0,0.888 -0.194,1.73 -0.542,2.488l0,1.244c0,0.686 -0.557,1.243 -1.244,1.243l-1.199,0l0,1.493c0,0.823 -0.668,1.492 -1.492,1.492l-2.985,0c-0.824,0 -1.493,-0.669 -1.493,-1.492l0,-1.493l-1.199,0c-0.687,0 -1.244,-0.557 -1.244,-1.243l0,-1.244Zm5.424,3.098c-0.154,0.231 -0.345,0.359 -0.51,0.314c-0.266,-0.071 -0.366,-0.559 -0.224,-1.089c0.142,-0.529 0.473,-0.902 0.738,-0.831c0.265,-0.071 0.598,0.308 0.742,0.845c0.144,0.537 0.045,1.031 -0.22,1.102c-0.17,0.046 -0.368,-0.093 -0.526,-0.341Zm-2.483,-5.586c0.823,0 1.492,0.669 1.492,1.493c0,0.823 -0.669,1.492 -1.492,1.492c-0.824,0 -1.493,-0.669 -1.493,-1.492c0,-0.824 0.669,-1.493 1.493,-1.493Zm4.975,0c0.823,0 1.492,0.669 1.492,1.493c0,0.823 -0.669,1.492 -1.492,1.492c-0.824,0 -1.493,-0.669 -1.493,-1.492c0,-0.824 0.669,-1.493 1.493,-1.493Z" style="fill:#e0e0e0;"/></svg>